<?xml version="1.0" encoding="iso-8859-1"?>
<!-- Generator: Adobe Illustrator 18.1.1, SVG Export Plug-In . SVG Version: 6.00 Build 0)  -->
<svg version="1.1" id="_x35_" xmlns="http://www.w3.org/2000/svg" xmlns:xlink="http://www.w3.org/1999/xlink" x="0px" y="0px"
	 viewBox="0 0 512 512" style="enable-background:new 0 0 512 512;" xml:space="preserve">
<g>
	<g>
		<polygon style="fill:#A3FFFF;" points="105.781,293.825 100.43,293.825 100.43,286.137 84.964,286.137 84.964,329.554 
			96.266,329.554 96.266,330.151 111.73,330.151 111.73,329.017 123.619,329.017 123.619,271.266 105.781,271.266 		"/>
		<polygon style="fill:#A3FFFF;" points="430.993,243.934 394.247,243.934 394.247,236.174 365.105,229.036 365.105,332.529 
			394.247,332.529 394.247,330.385 430.993,330.385 		"/>
		<polygon style="fill:#A3FFFF;" points="357.398,179.471 337.322,179.471 337.322,190.414 325.56,190.414 325.56,251.044 
			315.618,251.044 315.618,224.279 287.189,224.279 287.189,330.98 315.618,330.98 315.618,330.385 325.56,330.385 333.068,330.385 
			364.985,330.385 364.985,190.414 357.398,190.414 		"/>
		<polygon style="fill:#A3FFFF;" points="233.374,210.699 225.79,210.699 225.79,219.556 222.068,219.556 222.068,330.385 
			256.141,330.385 256.141,219.556 233.374,219.556 		"/>
		<polygon style="fill:#A3FFFF;" points="179.533,254.613 168.829,254.613 168.829,330.385 179.533,330.385 179.533,330.744 
			202.135,330.744 202.135,233.796 179.533,233.796 		"/>
	</g>
	<polygon style="fill:#12FFFF;" points="74.777,275.568 62.731,283.234 62.731,327.584 74.777,327.584 86.822,327.584 
		86.822,283.234 	"/>
	<g>
		<g>
			<polygon style="fill:#12FFFF;" points="291.074,204.124 248.543,225.735 248.543,330.385 291.074,330.385 			"/>
		</g>
		<path style="fill:#12FFFF;" d="M341.056,308.252v-62.582h-46.435v6.966h4.644v13.155h-4.644v0.387v6.577v0.387h4.644v13.158
			h-4.644v6.964h4.644v13.156h-4.644v6.964h4.644v17.001h21.671h20.119h9.279v-22.133H341.056z M316.025,323.138h-5.981v-5.799
			h5.981V323.138z M316.025,302.842h-5.981v-5.798h5.981V302.842z M316.025,282.546h-5.981v-5.798h5.981V282.546z M316.025,262.25
			h-5.981v-5.798h5.981V262.25z M327.442,323.138h-5.981v-5.799h5.981V323.138z M327.442,302.842h-5.981v-5.798h5.981V302.842z
			 M327.442,282.546h-5.981v-5.798h5.981V282.546z M327.442,262.25h-5.981v-5.798h5.981V262.25z"/>
		<g>
			<path style="fill:#12FFFF;" d="M234.675,248.727v-6.281h-13.281v-17.948h-18.752v17.948h-13.283v6.281h4.725v5.384h-4.725v6.28
				h4.725v5.385h-4.725v6.28h4.725v5.384h-4.725v6.281h4.725v5.386h-4.725v6.28h4.725v5.386h-4.725v6.28h4.725v5.386h-4.725v6.28
				h4.725v5.385h-4.725v6.28h45.316v-6.28h-4.723v-5.385h4.723v-6.28h-4.723v-5.386h4.723v-6.28h-4.723v-5.386h4.723v-6.28h-4.723
				v-5.386h4.723v-6.281h-4.723v-5.384h4.723v-6.28h-4.723v-5.385h4.723v-6.28h-4.723v-5.384H234.675z M202.641,324.105h-5.901
				v-5.385h5.901V324.105z M202.641,312.439h-5.901v-5.386h5.901V312.439z M202.641,300.774h-5.901v-5.386h5.901V300.774z
				 M202.641,289.108h-5.901v-5.386h5.901V289.108z M202.641,277.441h-5.901v-5.384h5.901V277.441z M202.641,265.777h-5.901v-5.385
				h5.901V265.777z M202.641,254.111h-5.901v-5.384h5.901V254.111z M227.294,324.105h-5.901v-5.385h5.901V324.105z M227.294,312.439
				h-5.901v-5.386h5.901V312.439z M227.294,300.774h-5.901v-5.386h5.901V300.774z M227.294,289.108h-5.901v-5.386h5.901V289.108z
				 M227.294,277.441h-5.901v-5.384h5.901V277.441z M227.294,265.777h-5.901v-5.385h5.901V265.777z M227.294,254.111h-5.901v-5.384
				h5.901V254.111z"/>
		</g>
		<path style="fill:#12FFFF;" d="M106.228,275.994c0-2.199,0-4.765,0-7.388h11.2l-11.2-9.49c0-1.411,0-2.693,0-3.775
			c0-1.067,0-1.938,0-2.545c0-0.273,0-0.492,0-0.651l5.127-7.068H88.212l5.129,7.068c0,0.856,0,3.537,0,6.971l-11.201,9.49h11.201
			c0,2.622,0,5.189,0,7.388l-11.201,9.491h11.007c-0.117,1.861-0.287,4.02-0.516,6.405c-0.91,9.469-2.754,22.538-5.811,35.027h-1.81
			v3.467h4.343v-3.229l10.277-7.835h0.241l10.253,7.771v3.293h4.342v-3.467h-1.714c-2.311-9.435-3.927-19.202-4.973-27.499
			c-0.54-4.294-0.929-8.193-1.182-11.447c-0.068-0.879-0.125-1.708-0.174-2.487h11.007L106.228,275.994z M112.918,266.923h-6.69
			c0-1.141,0-2.28,0-3.392c0-0.773,0-1.537,0-2.276L112.918,266.923z M108.156,246.762l-3.087,4.25h-0.922l-3.585-2.3l3.048-1.95
			H108.156z M99.496,303.786l-6.042-5.103c0.025-0.221,0.053-0.441,0.079-0.658l6.191-6.449l6.328,6.594
			c0.019,0.138,0.036,0.278,0.052,0.418l-6.152,5.198H99.496z M103.167,252.695l-3.444,2.436l-3.443-2.436H103.167z M96.971,251.012
			l2.758-1.766l2.754,1.766H96.971z M103.457,260.447l-3.734,2.639l-3.734-2.639H103.457z M96.136,258.765l3.587-2.536l3.587,2.536
			H96.136z M104.671,260.687c0,1.855,0,3.871,0,5.899l-4.172-2.951L104.671,260.687z M103.597,266.923h-7.748l3.875-2.739
			L103.597,266.923z M103.818,268.607l-4.094,2.897l-4.094-2.897H103.818z M104.671,269.101c0,2.064,0,4.082,0,5.899l-4.172-2.95
			L104.671,269.101z M104.028,275.643h-8.609l4.305-3.044L104.028,275.643z M103.603,277.325l-3.88,2.745l-3.88-2.745H103.603z
			 M103.449,283.802h-7.453l3.727-2.635L103.449,283.802z M104.346,285.485l-4.623,4.816l-4.624-4.816H104.346z M105.39,292.066
			c0.141,1.469,0.305,3.024,0.491,4.651l-5.001-5.21h4.456C105.354,291.693,105.371,291.877,105.39,292.066z M100.727,290.53
			l4.178-4.351c0.088,1.324,0.2,2.782,0.343,4.351H100.727z M100.499,280.617l4.172-2.95c0,1.058,0,1.99,0,2.743
			c0,0.873,0.026,1.954,0.088,3.219L100.499,280.617z M104.671,258.629l-4.172-2.95l4.172-2.95
			C104.671,253.861,104.671,255.996,104.671,258.629z M98.949,255.679l-4.052,2.864c0-1.187,0-2.27,0-3.203c0-1.057,0-1.921,0-2.525
			L98.949,255.679z M98.949,263.635l-4.052,2.863c0-0.998,0-1.993,0-2.967c0-0.944,0-1.87,0-2.759L98.949,263.635z M98.949,272.05
			l-4.052,2.863c0-1.769,0-3.726,0-5.728L98.949,272.05z M98.949,280.617l-4.136,2.923c0.057-1.226,0.084-2.277,0.084-3.129
			c0-0.735,0-1.634,0-2.655L98.949,280.617z M98.72,290.53H94.32c0.076-0.839,0.144-1.648,0.204-2.417
			c0.048-0.631,0.092-1.235,0.132-1.815L98.72,290.53z M94.232,291.507h4.334l-4.864,5.066
			C93.908,294.792,94.082,293.096,94.232,291.507z M101.945,246.762l-2.215,1.415l-2.208-1.415H101.945z M91.412,246.762h4.446
			l3.039,1.95l-3.594,2.3h-0.804L91.412,246.762z M86.649,266.923l6.691-5.668c0,1.801,0,3.731,0,5.668H86.649z M86.649,283.802
			l6.691-5.668c0,0.865,0,1.634,0,2.276c0,0.847-0.029,1.923-0.09,3.195c-0.003,0.066-0.007,0.132-0.009,0.197H86.649z
			 M93.322,299.735l4.795,4.051H92.78C92.976,302.404,93.156,301.051,93.322,299.735z M92.641,304.761h6.154l-7.088,5.989
			C92.047,308.711,92.357,306.71,92.641,304.761z M99.723,305.143l8.078,6.824l-8.054,6.139l-8.102-6.139L99.723,305.143z
			 M98.581,318.346h-8.267c0.367-1.845,0.712-3.676,1.029-5.487L98.581,318.346z M88.482,326.695
			c0.592-2.452,1.134-4.918,1.635-7.374h8.038L88.482,326.695z M101.348,319.321h8.102c0.502,2.458,1.045,4.928,1.636,7.379
			L101.348,319.321z M109.254,318.346h-8.343l7.301-5.566C108.532,314.615,108.882,316.475,109.254,318.346z M107.883,310.871
			l-7.232-6.11h6.223v-0.378C107.176,306.489,107.51,308.658,107.883,310.871z M106.789,303.786h-5.459l4.905-4.144
			C106.404,300.988,106.589,302.371,106.789,303.786z M106.327,283.802c-0.003-0.065-0.007-0.13-0.011-0.197
			c-0.058-1.271-0.088-2.348-0.088-3.195c0-0.642,0-1.411,0-2.276l6.69,5.668H106.327z"/>
		<g>
			<polygon style="fill:#12FFFF;" points="149.616,233.953 149.616,222.712 149.616,214.469 149.616,210.545 143.859,210.545 
				143.859,214.469 130.044,214.469 130.044,210.545 124.287,210.545 124.287,214.469 124.287,222.712 124.287,233.953 
				116.804,250.838 116.804,330.385 157.1,330.385 157.1,250.838 			"/>
		</g>
		<g>
			<polygon style="fill:#12FFFF;" points="433.57,232.636 433.57,250.826 452.824,262.257 452.824,330.385 429.127,330.385 
				429.127,261.515 429.127,248.188 429.127,232.636 			"/>
		</g>
		<g>
			<path style="fill:#12FFFF;" d="M388.345,231.171v-7.92l-18.945-5.318l-12.962,4.5v6.936l-8.357,2.9v98.114h48.622V233.52
				L388.345,231.171z M372.619,323.665h-3.495v-7.411l3.495,0.093V323.665z M372.619,307.4l-3.495-0.204v-7.413l3.495,0.298V307.4z
				 M372.619,291.137l-3.495-0.41v-7.413l3.495,0.502V291.137z M372.619,274.868l-3.495-0.615v-7.411l3.495,0.708V274.868z
				 M372.619,258.605l-3.495-0.823v-7.411l3.495,0.914V258.605z M372.619,242.339l-3.495-1.026V233.9l3.495,1.119V242.339z
				 M382.429,323.665h-3.252v-7.144l3.252,0.085V323.665z M382.429,307.977l-3.252-0.193v-7.145l3.252,0.277V307.977z
				 M382.429,292.287l-3.252-0.381v-7.148l3.252,0.47V292.287z M382.429,276.597l-3.252-0.572v-7.147l3.252,0.66V276.597z
				 M382.429,260.908l-3.252-0.764v-7.145l3.252,0.849V260.908z M382.429,245.218l-3.252-0.954v-7.145l3.252,1.041V245.218z
				 M391.567,323.665h-3.031v-6.898l3.031,0.08V323.665z M391.567,308.514l-3.031-0.177v-6.902l3.031,0.26V308.514z
				 M391.567,293.361l-3.031-0.357v-6.899l3.031,0.437V293.361z M391.567,278.206l-3.031-0.532v-6.9l3.031,0.615V278.206z
				 M391.567,263.053l-3.031-0.711v-6.899l3.031,0.789V263.053z M391.567,247.9l-3.031-0.889v-6.898l3.031,0.969V247.9z"/>
		</g>
	</g>
	<g>
		<polygon style="fill:#0EC7D7;" points="112.217,330.385 112.217,304.65 98.043,299.805 98.043,304.013 85.736,299.805 
			85.736,304.013 73.429,299.805 73.429,330.385 		"/>
	</g>
	<g>
		<polygon style="fill:#0EC7D7;" points="238.607,292.292 238.607,269.436 209.085,269.436 209.085,292.292 185.754,292.292 
			185.754,330.385 261.939,330.385 261.939,292.292 		"/>
		<circle style="fill:#D6FFFF;" cx="223.845" cy="282.985" r="6.038"/>
		<polygon style="fill:#0EC7D7;" points="223.603,279.99 223.603,282.993 220.599,282.993 220.599,284.493 223.603,284.493 
			225.103,284.493 225.103,282.993 225.103,279.99 		"/>
		<rect x="195.303" y="314.364" style="fill:#D6FFFF;" width="4.078" height="6.221"/>
		<rect x="195.303" y="302.195" style="fill:#D6FFFF;" width="4.078" height="6.222"/>
		<rect x="208.555" y="314.364" style="fill:#D6FFFF;" width="4.077" height="6.221"/>
		<rect x="208.555" y="302.195" style="fill:#D6FFFF;" width="4.077" height="6.222"/>
		<rect x="221.807" y="314.364" style="fill:#D6FFFF;" width="4.078" height="6.221"/>
		<rect x="221.807" y="302.195" style="fill:#D6FFFF;" width="4.078" height="6.222"/>
		<rect x="235.059" y="314.364" style="fill:#D6FFFF;" width="4.078" height="6.221"/>
		<rect x="235.059" y="302.195" style="fill:#D6FFFF;" width="4.078" height="6.222"/>
		<rect x="248.312" y="314.364" style="fill:#D6FFFF;" width="4.077" height="6.221"/>
		<rect x="248.312" y="302.195" style="fill:#D6FFFF;" width="4.077" height="6.222"/>
	</g>
	<path style="fill:#0EC7D7;" d="M456.813,310.473v-8.037l1.778,1.684v-3.378l-12.296-11.631l-12.298,11.631v3.378l1.78-1.685v8.038
		l-10.582,10.01v3.377l1.78-1.685v8.21h8.802h8.804h3.429h8.804h8.801v-8.21l1.781,1.685v-3.377L456.813,310.473z"/>
	<g>
		<path style="fill:#0EC7D7;" d="M178.968,272.754v-6.964h-15.082l-1.227-5.969c1.118-0.849,1.842-2.187,1.842-3.7
			c0-2.562-2.079-4.641-4.641-4.641c-2.565,0-4.644,2.079-4.644,4.641c0,1.513,0.725,2.851,1.844,3.7l-1.227,5.969H127.89v6.964
			h4.644v13.545h-4.644v6.964h4.644v13.156h-4.644v6.964h4.644v17.001h41.789v-17.001h4.644v-6.964h-4.644v-13.156h4.644v-6.964
			h-4.644v-13.545H178.968z M162.734,265.79h-2.312v-5.062c0.422-0.049,0.828-0.156,1.207-0.313L162.734,265.79z M158.088,260.415
			c0.378,0.157,0.783,0.263,1.206,0.313v5.062h-2.312L158.088,260.415z"/>
	</g>
	<g>
		<path style="fill:#0EC7D7;" d="M316.13,307.4v-10.449l-21.112-14.626l-21.115,14.626V307.4l-6.398,3.482v19.503h27.513h27.513
			v-19.503L316.13,307.4z"/>
	</g>
	<g>
		<path style="fill:#0EC7D7;" d="M28.805,319.051v11.055h33.953v-27.242l-26.057,8.29v5.923L28.805,319.051z"/>
	</g>
	<g>
		<path style="fill:#0EC7D7;" d="M378.831,281.631v5.416h2.322v43.337h36.373v-43.337h2.321v-5.416H378.831z"/>
	</g>
	<rect y="327.329" style="fill:#0EC7D7;" width="512" height="4.842"/>
	<g>
		<path style="fill:#0EC7D7;" d="M360.926,311.728v-3.067c0,0,4.345-2.557,6.135-5.111c-4.089,1.022-7.67-3.068-7.67-3.068
			l-1.532-5.367l0.257-2.556h-2.047c0,2.3-1.532,3.065-1.532,3.065h-3.835h-3.322h-3.834c0,0-1.533-0.765-1.533-3.065h-2.046
			l0.257,2.556l-1.533,5.367c0,0-3.578,4.09-7.667,3.068c1.789,2.554,6.134,5.111,6.134,5.111v3.067c0,0-5.367,5.367-13.545,5.367
			c4.857,4.346,8.178,4.856,9.456,5.367v7.923h14.312h3.322h14.313v-7.923c1.278-0.511,4.602-1.021,9.456-5.367
			C366.293,317.095,360.926,311.728,360.926,311.728z"/>
	</g>
	<path style="fill:#0EC7D7;" d="M184.074,319.832c0-2.437-1.975-4.411-4.411-4.411c-2.436,0-4.41,1.974-4.41,4.411
		c0,2.194,1.604,4.014,3.706,4.353v3.94h1.411v-3.94C182.47,323.846,184.074,322.026,184.074,319.832z"/>
	<g>
		<path style="fill:#0EC7D7;" d="M122.728,318.376c0-2.864-2.321-5.186-5.185-5.186c-2.865,0-5.186,2.322-5.186,5.186
			c0,2.58,1.886,4.72,4.355,5.118v4.631h1.66v-4.631C120.841,323.096,122.728,320.955,122.728,318.376z"/>
		<path style="fill:#0EC7D7;" d="M128.081,321.783c0-2.123-1.723-3.847-3.847-3.847c-2.124,0-3.847,1.724-3.847,3.847
			c0,1.914,1.399,3.503,3.232,3.796v3.437h1.231v-3.437C126.683,325.287,128.081,323.697,128.081,321.783z"/>
	</g>
	<g>
		<path style="fill:#0EC7D7;" d="M484.103,314.175c0-3.993-3.237-7.23-7.23-7.23c-3.995,0-7.231,3.237-7.231,7.23
			c0,3.601,2.63,6.584,6.074,7.137v6.458h2.315v-6.458C481.474,320.759,484.103,317.776,484.103,314.175z"/>
		<path style="fill:#0EC7D7;" d="M491.568,318.93c0-2.963-2.401-5.364-5.363-5.364c-2.964,0-5.366,2.401-5.366,5.364
			c0,2.67,1.951,4.884,4.507,5.296v4.791h1.717v-4.791C489.619,323.813,491.568,321.6,491.568,318.93z"/>
	</g>
	<g>
		<path style="fill:#0EC7D7;" d="M378.767,318.376c0-2.864-2.321-5.186-5.186-5.186c-2.863,0-5.185,2.322-5.185,5.186
			c0,2.58,1.886,4.72,4.355,5.118v4.631h1.66v-4.631C376.881,323.096,378.767,320.955,378.767,318.376z"/>
		<path style="fill:#0EC7D7;" d="M384.118,321.783c0-2.123-1.721-3.847-3.845-3.847c-2.126,0-3.847,1.724-3.847,3.847
			c0,1.914,1.399,3.503,3.232,3.796v3.437h1.231v-3.437C382.72,325.287,384.118,323.697,384.118,321.783z"/>
	</g>
	<g>
		<rect x="143.987" y="317.171" style="fill:#D6FFFF;" width="4.908" height="4.908"/>
		<rect x="143.987" y="297.246" style="fill:#D6FFFF;" width="4.908" height="4.908"/>
		<rect x="143.987" y="277.323" style="fill:#D6FFFF;" width="4.908" height="4.906"/>
		<rect x="157.965" y="317.171" style="fill:#D6FFFF;" width="4.906" height="4.908"/>
		<rect x="157.965" y="297.246" style="fill:#D6FFFF;" width="4.906" height="4.908"/>
		<rect x="157.965" y="277.323" style="fill:#D6FFFF;" width="4.906" height="4.906"/>
	</g>
	<g>
		<rect x="280.855" y="316.366" style="fill:#D6FFFF;" width="4.234" height="5.647"/>
		<rect x="286.727" y="299.313" style="fill:#D6FFFF;" width="4.235" height="5.648"/>
		<rect x="292.9" y="316.366" style="fill:#D6FFFF;" width="4.233" height="5.647"/>
		<rect x="299.072" y="299.313" style="fill:#D6FFFF;" width="4.235" height="5.648"/>
		<rect x="304.945" y="316.366" style="fill:#D6FFFF;" width="4.235" height="5.647"/>
	</g>
	<g>
		<rect x="392.373" y="295.561" style="fill:#D6FFFF;" width="4.575" height="5.328"/>
		<rect x="401.89" y="295.561" style="fill:#D6FFFF;" width="4.575" height="5.328"/>
		<rect x="392.373" y="307.158" style="fill:#D6FFFF;" width="4.575" height="5.33"/>
		<rect x="401.89" y="307.158" style="fill:#D6FFFF;" width="4.575" height="5.33"/>
	</g>
	<g>
		<rect x="438.934" y="321.206" style="fill:#D6FFFF;" width="4.016" height="4.654"/>
		<rect x="444.288" y="302.07" style="fill:#D6FFFF;" width="4.014" height="4.654"/>
		<rect x="449.642" y="321.206" style="fill:#D6FFFF;" width="4.014" height="4.654"/>
	</g>
	<g>
		<rect x="53.604" y="323.378" style="fill:#D6FFFF;" width="1.971" height="2.508"/>
		<rect x="53.604" y="313.584" style="fill:#D6FFFF;" width="1.971" height="2.508"/>
		<rect x="43.81" y="313.584" style="fill:#D6FFFF;" width="1.969" height="2.508"/>
		<rect x="43.57" y="323.378" style="fill:#D6FFFF;" width="1.971" height="2.508"/>
		<rect x="33.537" y="323.378" style="fill:#D6FFFF;" width="1.971" height="2.508"/>
	</g>
</g>
</svg>
